<svg width="128" height="128" viewBox="0 0 128 128" fill="none" xmlns="http://www.w3.org/2000/svg">
<rect width="128" height="128" rx="16" fill="#0C2340"/>
<path d="M46.7078 54.3082L55.6469 54.1939C56.0781 54.1878 56.4797 54.3067 56.8203 54.514C58.6719 55.5596 60.4203 56.75 62.0469 58.0929C62.9625 58.8504 63.8484 59.6598 64.7016 60.5255C67.775 55.8675 71.4266 51.1393 75.2516 46.6886C80.2359 40.8904 85.55 35.5312 90.2859 31.3899C90.7 31.0286 91.2187 30.8518 91.7328 30.8518L98.6422 30.8412C99.8453 30.8412 100.822 31.7938 100.822 32.9675C100.822 33.5558 100.578 34.0862 100.183 34.4719C93.8422 41.3492 87.3391 49.2234 81.4453 57.2926C75.9891 64.7644 71.0469 72.4084 67.2375 79.586C66.6875 80.6271 65.375 81.0355 64.3078 80.499C63.8789 80.2843 63.5361 79.9354 63.3344 79.5083C61.2469 75.1535 58.7594 71.1555 55.7984 67.5888C52.8406 64.0267 49.3922 60.8685 45.3781 58.1813C44.3859 57.5213 44.1312 56.1998 44.8078 55.2319C45.2484 54.6008 45.9781 54.2762 46.7078 54.3082ZM33.7734 28H75.9859C72.9953 31.0058 70.4047 33.9384 68.1781 36.7567H33.7734C33.5516 36.7567 33.35 36.8436 33.2047 36.9792C33.0583 37.1287 32.9766 37.3274 32.9766 37.5341V90.4644C32.9766 90.6687 33.0703 90.8607 33.2172 91.0055C33.3672 91.1503 33.5656 91.2433 33.7734 91.2433H94.225C94.4266 91.2433 94.6234 91.1488 94.775 91.0025C94.9266 90.8546 95.0234 90.661 95.0234 90.4644V60.556C98.2766 59.2436 101.336 57.8917 104 56.622V90.4644C104 93.077 102.889 95.4669 101.12 97.1924C99.35 98.9193 96.9031 100 94.225 100H33.7734C31.0969 100 28.6437 98.9239 26.8719 97.1954C25.1062 95.473 24 93.0891 24 90.4644V37.5341C24 34.92 25.1 32.5392 26.8672 30.8137L26.8844 30.797C28.6531 29.0731 31.0937 28 33.7734 28Z" fill="#F9FBFF"/>
</svg>
